<?xml version="1.0" encoding="UTF-8" standalone="no"?>
<!-- Generator: Adobe Illustrator 14.0.0, SVG Export Plug-In  -->

<svg
   xmlns:dc="http://purl.org/dc/elements/1.1/"
   xmlns:cc="http://creativecommons.org/ns#"
   xmlns:rdf="http://www.w3.org/1999/02/22-rdf-syntax-ns#"
   xmlns:svg="http://www.w3.org/2000/svg"
   xmlns="http://www.w3.org/2000/svg"
   xmlns:sodipodi="http://sodipodi.sourceforge.net/DTD/sodipodi-0.dtd"
   xmlns:inkscape="http://www.inkscape.org/namespaces/inkscape"
   version="1.1"
   x="0px"
   y="0px"
   width="285px"
   height="285px"
   viewBox="-0.866 -0.866 285 285"
   enable-background="new -0.866 -0.866 285 285"
   xml:space="preserve"
   id="svg3004"
   inkscape:version="0.48.4 r9939"
   sodipodi:docname="caxton-logo.svg"><metadata
     id="metadata3014"><rdf:RDF><cc:Work
         rdf:about=""><dc:format>image/svg+xml</dc:format><dc:type
           rdf:resource="http://purl.org/dc/dcmitype/StillImage" /><dc:title /></cc:Work></rdf:RDF></metadata><sodipodi:namedview
     pagecolor="#ffffff"
     bordercolor="#666666"
     borderopacity="1"
     objecttolerance="10"
     gridtolerance="10"
     guidetolerance="10"
     inkscape:pageopacity="0"
     inkscape:pageshadow="2"
     inkscape:window-width="1805"
     inkscape:window-height="1270"
     id="namedview3012"
     showgrid="false"
     inkscape:zoom="1.1710681"
     inkscape:cx="-152.75007"
     inkscape:cy="154.4182"
     inkscape:window-x="75"
     inkscape:window-y="34"
     inkscape:window-maximized="0"
     inkscape:current-layer="svg3004" /><defs
     id="defs3006" /><rect
     y="0.0037573425"
     x="-0.10674017"
     height="285.20972"
     width="285.20972"
     id="rect3047"
     style="fill:#1b3540;fill-opacity:1;stroke:none"
     transform="translate(-0.866,-0.866)" /><path
     style="fill:#ffffff;fill-opacity:1;stroke:none"
     d="M 9.15625 113.375 C 5.9200126 113.375 2.8142263 113.90656 -0.09375 114.875 L -0.09375 170.34375 C 2.8131589 171.31484 5.9213945 171.84375 9.15625 171.84375 C 25.303789 171.84375 38.4375 158.74129 38.4375 142.59375 C 38.4375 126.43848 25.305335 113.375 9.15625 113.375 z "
     id="rect3037"
     transform="translate(-0.866,-0.866)" /><path
     style="fill:#ffffff"
     d="m 157.2281,14.70938 c -20.22267,0 -39.33809,4.728823 -56.30931,13.13562 l 20.33124,36.412709 c 10.93656,-5.088893 23.11907,-7.968298 35.97807,-7.968298 23.78071,0 45.27179,9.722365 60.75224,25.401969 l 29.36197,-29.410265 c -0.37569,-0.378695 -0.73034,-0.78505 -1.11073,-1.159025 -11.11737,4.200307 -23.96014,3.609204 -35.06051,-2.800978 C 200.05679,41.904748 193.08796,31.043523 191.17788,19.297189 180.37268,16.306904 168.9868,14.70938 157.2281,14.70938 z"
     id="path3045" /><path
     style="fill:#ffffff"
     d="m 86.769026,36.054762 c -25.591277,17.09794 -44.634834,43.225846 -52.542477,73.839568 9.236659,7.52903 15.115621,18.97208 15.115621,31.8249 0,12.84973 -5.877417,24.34571 -15.115621,31.87319 7.906098,30.61681 26.9512,56.74317 52.542477,73.83957 l 21.345384,-35.8332 C 86.153198,196.14512 71.798284,170.62377 71.798284,141.71923 c 0,-28.89991 14.354914,-54.422804 36.316126,-69.879564 L 86.769026,36.054762 z"
     id="path3043" /><path
     style="fill:#ffffff"
     d="m 218.17351,201.55391 c -15.49425,15.79261 -37.06688,25.59514 -60.94541,25.59514 -12.86054,0 -25.03997,-2.87941 -35.97807,-7.9683 l -20.33124,36.41271 c 16.97277,8.4037 36.08664,13.18391 56.30931,13.18391 11.7587,0 23.14303,-1.64582 33.94978,-4.6361 1.91008,-11.74634 8.87736,-22.55463 19.99319,-28.97563 11.10037,-6.40709 23.94314,-7.05113 35.06051,-2.84927 0.45332,-0.44573 0.85726,-0.94805 1.3039,-1.40049 l -29.36197,-29.36197 z"
     id="path3010" /></svg>