<?xml version="1.0" encoding="UTF-8" standalone="no"?>
<!-- Created with Inkscape (http://www.inkscape.org/) -->

<svg
   xmlns:dc="http://purl.org/dc/elements/1.1/"
   xmlns:cc="http://creativecommons.org/ns#"
   xmlns:rdf="http://www.w3.org/1999/02/22-rdf-syntax-ns#"
   xmlns:svg="http://www.w3.org/2000/svg"
   xmlns="http://www.w3.org/2000/svg"
   xmlns:xlink="http://www.w3.org/1999/xlink"
   xmlns:sodipodi="http://sodipodi.sourceforge.net/DTD/sodipodi-0.dtd"
   xmlns:inkscape="http://www.inkscape.org/namespaces/inkscape"
   width="256px"
   height="256px"
   viewBox="0 0 256 256"
   id="SVGRoot"
   version="1.1"
   inkscape:version="0.91+devel+osxmenu r12897"
   sodipodi:docname="caxton-realistic.svg"
   inkscape:export-filename="/Users/Sam/Projects/Logos/caxton.png"
   inkscape:export-xdpi="96"
   inkscape:export-ydpi="96">
  <sodipodi:namedview
     id="base"
     pagecolor="#4f4f4f"
     bordercolor="#666666"
     borderopacity="1.0"
     inkscape:pageopacity="0"
     inkscape:pageshadow="2"
     inkscape:zoom="0.5"
     inkscape:cx="260.62765"
     inkscape:cy="163.60136"
     inkscape:document-units="px"
     inkscape:current-layer="layer1"
     showgrid="false"
     inkscape:window-width="1920"
     inkscape:window-height="970"
     inkscape:window-x="0"
     inkscape:window-y="23"
     inkscape:window-maximized="0"
     inkscape:grid-bbox="true"
     inkscape:snap-global="true"
     inkscape:snap-bbox="true"
     inkscape:bbox-paths="true"
     inkscape:snap-bbox-edge-midpoints="true"
     inkscape:snap-bbox-midpoints="true"
     inkscape:snap-intersection-paths="true"
     inkscape:snap-smooth-nodes="true"
     inkscape:snap-midpoints="true"
     inkscape:snap-center="true"
     inkscape:object-paths="true"
     inkscape:object-nodes="true">
    <inkscape:grid
       type="xygrid"
       id="grid7500"
       empspacing="4" />
  </sodipodi:namedview>
  <defs
     id="defs6943">
    <linearGradient
       inkscape:collect="always"
       id="linearGradient4590">
      <stop
         style="stop-color:#1b3540;stop-opacity:1;"
         offset="0"
         id="stop4592" />
      <stop
         style="stop-color:#385b6a;stop-opacity:1"
         offset="1"
         id="stop4594" />
    </linearGradient>
    <linearGradient
       inkscape:collect="always"
       id="linearGradient4563">
      <stop
         style="stop-color:#e84a0f;stop-opacity:1"
         offset="0"
         id="stop4565" />
      <stop
         id="stop4573"
         offset="0.5"
         style="stop-color:#ae1f12;stop-opacity:1;" />
      <stop
         style="stop-color:#5a1610;stop-opacity:1"
         offset="1"
         id="stop4567" />
    </linearGradient>
    <linearGradient
       inkscape:collect="always"
       id="linearGradient4545">
      <stop
         style="stop-color:#ffffff;stop-opacity:1;"
         offset="0"
         id="stop4547" />
      <stop
         style="stop-color:#ffffff;stop-opacity:0;"
         offset="1"
         id="stop4549" />
    </linearGradient>
    <linearGradient
       inkscape:collect="always"
       id="linearGradient4532">
      <stop
         style="stop-color:#767676;stop-opacity:1"
         offset="0"
         id="stop4534" />
      <stop
         style="stop-color:#e1e1e1;stop-opacity:1"
         offset="1"
         id="stop4536" />
    </linearGradient>
    <linearGradient
       inkscape:collect="always"
       id="linearGradient7587">
      <stop
         style="stop-color:#ffffff;stop-opacity:1;"
         offset="0"
         id="stop7589" />
      <stop
         style="stop-color:#000000;stop-opacity:1"
         offset="1"
         id="stop7591" />
    </linearGradient>
    <linearGradient
       inkscape:collect="always"
       xlink:href="#linearGradient7587"
       id="linearGradient7593"
       x1="144"
       y1="200"
       x2="104"
       y2="48"
       gradientUnits="userSpaceOnUse" />
    <linearGradient
       inkscape:collect="always"
       xlink:href="#linearGradient4532"
       id="linearGradient4538"
       x1="152"
       y1="232"
       x2="112"
       y2="48"
       gradientUnits="userSpaceOnUse" />
    <radialGradient
       inkscape:collect="always"
       xlink:href="#linearGradient4563"
       id="radialGradient4571"
       cx="128"
       cy="112"
       fx="128"
       fy="112"
       r="48"
       gradientUnits="userSpaceOnUse"
       gradientTransform="matrix(1.4999999,5.2674939e-8,-5.2674943e-8,1.5,-63.99998,-56.000007)" />
    <linearGradient
       inkscape:collect="always"
       xlink:href="#linearGradient4590"
       id="linearGradient4596"
       x1="208"
       y1="168"
       x2="192"
       y2="80"
       gradientUnits="userSpaceOnUse" />
    <filter
       inkscape:collect="always"
       style="color-interpolation-filters:sRGB"
       id="filter4622"
       x="-0.048"
       width="1.096"
       y="-0.048"
       height="1.096">
      <feGaussianBlur
         inkscape:collect="always"
         stdDeviation="3.84"
         id="feGaussianBlur4624" />
    </filter>
    <filter
       inkscape:collect="always"
       style="color-interpolation-filters:sRGB"
       id="filter4630"
       x="-0.065156284"
       width="1.1303126"
       y="-0.055599975"
       height="1.1112">
      <feGaussianBlur
         inkscape:collect="always"
         stdDeviation="4.447998"
         id="feGaussianBlur4632" />
    </filter>
    <clipPath
       clipPathUnits="userSpaceOnUse"
       id="clipPath4642">
      <path
         inkscape:connector-curvature="0"
         id="path4644"
         d="M 195.83984,60.160156 A 96,96 0 0 1 224,128 96,96 0 0 1 195.83984,195.83984 L 161.93945,161.93945 A 47.868271,48.000004 0 0 0 176,128 47.868271,48.000004 0 0 0 161.94141,94.058594 l 33.89843,-33.898438 z"
         style="opacity:1;fill:url(#linearGradient4646);fill-opacity:1;stroke:none;stroke-width:2;stroke-linecap:round;stroke-linejoin:round;stroke-miterlimit:4;stroke-dasharray:none;stroke-dashoffset:0;stroke-opacity:1" />
    </clipPath>
    <linearGradient
       inkscape:collect="always"
       xlink:href="#linearGradient4590"
       id="linearGradient4646"
       gradientUnits="userSpaceOnUse"
       x1="208"
       y1="168"
       x2="192"
       y2="80" />
    <filter
       inkscape:collect="always"
       style="color-interpolation-filters:sRGB"
       id="filter4652"
       x="-0.24"
       width="1.48"
       y="-0.24"
       height="1.48">
      <feGaussianBlur
         inkscape:collect="always"
         stdDeviation="9.6"
         id="feGaussianBlur4654" />
    </filter>
    <radialGradient
       inkscape:collect="always"
       xlink:href="#linearGradient4545"
       id="radialGradient4656"
       cx="128"
       cy="85.14286"
       fx="128"
       fy="85.14286"
       r="31.999998"
       gradientTransform="matrix(1.5000002,-5.8024286e-8,4.8353571e-8,1.2500001,-64.000025,-18.428576)"
       gradientUnits="userSpaceOnUse" />
  </defs>
  <metadata
     id="metadata6946">
    <rdf:RDF>
      <cc:Work
         rdf:about="">
        <dc:format>image/svg+xml</dc:format>
        <dc:type
           rdf:resource="http://purl.org/dc/dcmitype/StillImage" />
        <dc:title></dc:title>
      </cc:Work>
    </rdf:RDF>
  </metadata>
  <g
     id="layer1"
     inkscape:groupmode="layer"
     inkscape:label="Layer 1">
    <circle
       style="opacity:0.3;fill:#000000;fill-opacity:1;stroke:none;stroke-width:2;stroke-linecap:round;stroke-linejoin:round;stroke-miterlimit:4;stroke-dasharray:none;stroke-dashoffset:0;stroke-opacity:1;filter:url(#filter4622)"
       id="path4598"
       cx="128"
       cy="132"
       r="96" />
    <path
       style="opacity:0.2;fill:#000000;fill-opacity:1;stroke:none;stroke-width:2;stroke-linecap:round;stroke-linejoin:round;stroke-miterlimit:4;stroke-dasharray:none;stroke-dashoffset:0;stroke-opacity:1"
       d="M 128 32 A 96 96 0 0 0 32 128 A 96 96 0 0 0 128 224 A 96 96 0 0 0 195.83984 195.83984 L 161.80469 161.80469 A 47.868271 48.000004 0 0 1 127.86914 176 A 47.868271 48.000004 0 0 1 80 128 A 47.868271 48.000004 0 0 1 127.86914 80 A 47.868271 48.000004 0 0 1 161.81055 94.189453 L 195.83984 60.160156 A 96 96 0 0 0 128 32 z "
       id="path7504" />
    <path
       style="opacity:0.1;fill:#000000;fill-opacity:1;stroke:none;stroke-width:2;stroke-linecap:round;stroke-linejoin:round;stroke-miterlimit:4;stroke-dasharray:none;stroke-dashoffset:0;stroke-opacity:1"
       d="M 128 56 A 72 72 0 0 0 56 128 A 72 72 0 0 0 128 200 A 72 72 0 0 0 178.87891 178.87891 L 161.80469 161.80469 A 47.868271 48.000004 0 0 1 127.86914 176 A 47.868271 48.000004 0 0 1 80 128 A 47.868271 48.000004 0 0 1 127.86914 80 A 47.868271 48.000004 0 0 1 161.81055 94.189453 L 178.87891 77.121094 A 72 72 0 0 0 128 56 z "
       id="circle7506" />
    <path
       inkscape:connector-curvature="0"
       id="path7528"
       d="m 128,32 a 96,96 0 0 0 -96,96 96,96 0 0 0 96,96 96,96 0 0 0 67.83984,-28.16016 L 161.80469,161.80469 A 47.868271,48.000004 0 0 1 127.86914,176 47.868271,48.000004 0 0 1 80,128 47.868271,48.000004 0 0 1 127.86914,80 47.868271,48.000004 0 0 1 161.81055,94.18945 L 195.83984,60.16016 A 96,96 0 0 0 128,32 Z"
       style="opacity:1;fill:url(#linearGradient4538);fill-opacity:1;stroke:none;stroke-width:2;stroke-linecap:round;stroke-linejoin:round;stroke-miterlimit:4;stroke-dasharray:none;stroke-dashoffset:0;stroke-opacity:1" />
    <path
       inkscape:connector-curvature="0"
       id="path7530"
       d="m 128,56 a 72,72 0 0 0 -72,72 72,72 0 0 0 72,72 72,72 0 0 0 50.87891,-21.12109 L 161.80469,161.80469 A 47.868271,48.000004 0 0 1 127.86914,176 47.868271,48.000004 0 0 1 80,128 47.868271,48.000004 0 0 1 127.86914,80 47.868271,48.000004 0 0 1 161.81055,94.189453 L 178.87891,77.121094 A 72,72 0 0 0 128,56 Z"
       style="opacity:0.1;fill:#000000;fill-opacity:1;stroke:none;stroke-width:2;stroke-linecap:round;stroke-linejoin:round;stroke-miterlimit:4;stroke-dasharray:none;stroke-dashoffset:0;stroke-opacity:1" />
    <path
       style="opacity:1;fill:url(#linearGradient4596);fill-opacity:1;stroke:none;stroke-width:2;stroke-linecap:round;stroke-linejoin:round;stroke-miterlimit:4;stroke-dasharray:none;stroke-dashoffset:0;stroke-opacity:1"
       d="M 195.83984,60.160156 A 96,96 0 0 1 224,128 96,96 0 0 1 195.83984,195.83984 L 161.93945,161.93945 A 47.868271,48.000004 0 0 0 176,128 47.868271,48.000004 0 0 0 161.94141,94.058594 l 33.89843,-33.898438 z"
       id="path7549"
       inkscape:connector-curvature="0" />
    <path
       inkscape:connector-curvature="0"
       style="opacity:0.5;fill:url(#linearGradient7593);fill-opacity:1;stroke:none;stroke-width:2;stroke-linecap:round;stroke-linejoin:round;stroke-miterlimit:4;stroke-dasharray:none;stroke-dashoffset:0;stroke-opacity:1"
       d="m 128,56 a 72,72 0 0 0 -72,72 72,72 0 0 0 72,72 72,72 0 0 0 50.87891,-21.12109 L 161.80469,161.80469 A 47.868271,48.000004 0 0 1 127.86914,176 47.868271,48.000004 0 0 1 80,128 47.868271,48.000004 0 0 1 127.86914,80 47.868271,48.000004 0 0 1 161.81055,94.189453 L 178.87891,77.121094 A 72,72 0 0 0 128,56 Z"
       id="path7551" />
    <path
       style="opacity:0.2;fill:#000000;fill-opacity:1;stroke:none;stroke-width:2;stroke-linecap:round;stroke-linejoin:round;stroke-miterlimit:4;stroke-dasharray:none;stroke-dashoffset:0;stroke-opacity:1"
       d="M 178.87891,77.121091 A 72,72 0 0 1 200,128 72,72 0 0 1 178.87891,178.87891 L 161.93945,161.93945 A 47.868271,48.000004 0 0 0 176,128 47.868271,48.000004 0 0 0 161.94141,94.058591 l 16.9375,-16.9375 z"
       id="path7565"
       inkscape:connector-curvature="0" />
    <circle
       r="48"
       cy="128"
       cx="128"
       id="circle4553"
       style="opacity:0.8;fill:#e8220f;fill-opacity:1;stroke:#e8220f;stroke-width:4;stroke-linecap:round;stroke-linejoin:round;stroke-miterlimit:4;stroke-dasharray:none;stroke-dashoffset:0;stroke-opacity:1;filter:url(#filter4652)" />
    <circle
       style="opacity:1;fill:url(#radialGradient4571);fill-opacity:1;stroke:none;stroke-width:2;stroke-linecap:round;stroke-linejoin:round;stroke-miterlimit:4;stroke-dasharray:none;stroke-dashoffset:0;stroke-opacity:1"
       id="path4541"
       cx="128"
       cy="128"
       r="48" />
    <ellipse
       cy="108"
       cx="127.99999"
       id="circle4543"
       style="opacity:0.5;fill:url(#radialGradient4656);fill-opacity:1;stroke:none;stroke-width:2;stroke-linecap:round;stroke-linejoin:round;stroke-miterlimit:4;stroke-dasharray:none;stroke-dashoffset:0;stroke-opacity:1"
       rx="31.999998"
       ry="28" />
    <path
       style="opacity:0.05;fill:#ffffff;fill-opacity:1;stroke:none;stroke-width:2;stroke-linecap:round;stroke-linejoin:round;stroke-miterlimit:4;stroke-dasharray:none;stroke-dashoffset:0;stroke-opacity:1"
       d="M 175.91602 125.66406 A 48 48 0 0 1 128 172 A 48 48 0 0 1 80.083984 126.33594 A 48 48 0 0 0 80 128 A 48 48 0 0 0 128 176 A 48 48 0 0 0 176 128 A 48 48 0 0 0 175.91602 125.66406 z "
       id="circle4575" />
    <path
       style="opacity:0.2;fill:#ffffff;fill-opacity:1;stroke:none;stroke-width:2;stroke-linecap:round;stroke-linejoin:round;stroke-miterlimit:4;stroke-dasharray:none;stroke-dashoffset:0;stroke-opacity:1"
       d="m 56.021484,127.41406 c -0.008,0.19528 -0.01512,0.3906 -0.02148,0.58594 0,39.7645 32.235498,72 71.999996,72 19.08893,-0.0174 37.38969,-7.61448 50.87891,-21.12109 l -0.52149,-0.52149 C 164.91886,191.56173 146.84006,198.97261 128,199 88.405019,198.98884 56.249187,167.00839 56.021484,127.41406 Z"
       id="path4580"
       inkscape:connector-curvature="0"
       sodipodi:nodetypes="ccccccc" />
    <path
       style="opacity:1;fill:#ffffff;fill-opacity:1;stroke:none;stroke-width:2;stroke-linecap:round;stroke-linejoin:round;stroke-miterlimit:4;stroke-dasharray:none;stroke-dashoffset:0;stroke-opacity:1"
       d="m 128,32 c -53.019336,0 -96,42.980664 -96,96 0.0069,0.13804 0.01402,0.27606 0.02148,0.41406 C 32.343646,75.632069 75.217027,33.010829 128,33 c 25.20236,0.0349 49.38023,9.978937 67.31445,27.685547 l 0.52539,-0.525391 C 177.85368,42.1515 153.45217,32.02249 128,32 Z"
       id="path4585"
       inkscape:connector-curvature="0"
       sodipodi:nodetypes="ccccccc" />
    <path
       sodipodi:nodetypes="ccccccc"
       inkscape:connector-curvature="0"
       id="path4626"
       d="m 56.021484,128.53307 c -0.008,-0.19528 -0.01512,-0.3906 -0.02148,-0.58594 0,-39.764517 32.235498,-72.000017 71.999996,-72.000017 19.08893,0.0174 37.38969,7.61448 50.87891,21.12109 l -0.52149,0.52149 C 164.91886,64.385383 146.84006,56.974503 128,56.947113 88.405019,56.958273 56.249187,88.938723 56.021484,128.53307 Z"
       style="opacity:0.2;fill:#000000;fill-opacity:1;stroke:none;stroke-width:2;stroke-linecap:round;stroke-linejoin:round;stroke-miterlimit:4;stroke-dasharray:none;stroke-dashoffset:0;stroke-opacity:1" />
    <path
       style="opacity:1;fill:#000000;fill-opacity:1;stroke:none;stroke-width:2;stroke-linecap:round;stroke-linejoin:round;stroke-miterlimit:4;stroke-dasharray:none;stroke-dashoffset:0;stroke-opacity:1;filter:url(#filter4630)"
       d="m 128,34 a 96,96 0 0 0 -96,96 96,96 0 0 0 96,96 96,96 0 0 0 67.83984,-28.16016 L 161.80469,163.80469 A 47.868271,48.000004 0 0 1 127.86914,178 47.868271,48.000004 0 0 1 80,130 47.868271,48.000004 0 0 1 127.86914,82 47.868271,48.000004 0 0 1 161.81055,96.18945 L 195.83984,62.16016 A 96,96 0 0 0 128,34 Z"
       id="path4628"
       inkscape:connector-curvature="0"
       clip-path="url(#clipPath4642)" />
  </g>
</svg>
