<?xml version="1.0" encoding="UTF-8" standalone="no"?>
<!-- Created with Inkscape (http://www.inkscape.org/) -->

<svg
   xmlns:dc="http://purl.org/dc/elements/1.1/"
   xmlns:cc="http://creativecommons.org/ns#"
   xmlns:rdf="http://www.w3.org/1999/02/22-rdf-syntax-ns#"
   xmlns:svg="http://www.w3.org/2000/svg"
   xmlns="http://www.w3.org/2000/svg"
   xmlns:sodipodi="http://sodipodi.sourceforge.net/DTD/sodipodi-0.dtd"
   xmlns:inkscape="http://www.inkscape.org/namespaces/inkscape"
   width="400.03125"
   height="694.375"
   id="svg2"
   version="1.1"
   inkscape:version="0.48.4 r9939"
   sodipodi:docname="ubuntu-edge.svg"
   inkscape:export-filename="/home/aquarius/Programs/Mine/caxton/server/public/ubuntu-edge.png"
   inkscape:export-xdpi="90"
   inkscape:export-ydpi="90">
  <defs
     id="defs4" />
  <sodipodi:namedview
     id="base"
     pagecolor="#ffffff"
     bordercolor="#666666"
     borderopacity="1.0"
     inkscape:pageopacity="0.0"
     inkscape:pageshadow="2"
     inkscape:zoom="8"
     inkscape:cx="41.668022"
     inkscape:cy="556.38964"
     inkscape:document-units="px"
     inkscape:current-layer="layer1"
     showgrid="false"
     fit-margin-top="0"
     fit-margin-left="0"
     fit-margin-right="0"
     fit-margin-bottom="0"
     inkscape:window-width="1476"
     inkscape:window-height="1140"
     inkscape:window-x="448"
     inkscape:window-y="163"
     inkscape:window-maximized="0" />
  <metadata
     id="metadata7">
    <rdf:RDF>
      <cc:Work
         rdf:about="">
        <dc:format>image/svg+xml</dc:format>
        <dc:type
           rdf:resource="http://purl.org/dc/dcmitype/StillImage" />
        <dc:title />
      </cc:Work>
    </rdf:RDF>
  </metadata>
  <g
     inkscape:label="Layer 1"
     inkscape:groupmode="layer"
     id="layer1"
     transform="translate(-273.14989,48.861698)">
    <path
       style="fill:#424242;fill-opacity:1;stroke:none;stroke-width:1;stroke-opacity:1"
       d="M 15.875,0.5 C 7.362321,0.5 0.5,7.362321 0.5,15.875 l 0,662.65625 c 0,8.51268 6.862321,15.34375 15.375,15.34375 l 368.28125,0 c 8.51268,0 15.375,-6.83107 15.375,-15.34375 l 0,-662.65625 c 0,-8.512679 -6.86232,-15.375 -15.375,-15.375 z m 11.1875,90.09375 345.90625,0 0,549.15625 -345.90625,0 z"
       id="rect2996"
       inkscape:connector-curvature="0"
       sodipodi:nodetypes="sssssssssccccc"
       transform="translate(273.14989,-48.861698)" />
    <path
       style="fill:none;stroke:#000000;stroke-width:1;stroke-opacity:1"
       d="m 292.37635,-44.859844 361.56328,0 c 8.43437,0 15.22449,6.790123 15.22449,15.224491 l 0,655.928463 c 0,8.43436 -6.79012,15.22449 -15.22449,15.22449 l -361.56328,0 c -8.43437,0 -15.22449,-6.79013 -15.22449,-15.22449 l 0,-655.928463 c 0,-8.434368 6.79012,-15.224491 15.22449,-15.224491 z"
       id="rect3766"
       inkscape:connector-curvature="0"
       sodipodi:nodetypes="sssssssss" />
    <rect
       style="fill:#1c1c1c;fill-opacity:1;stroke:#00ff00;stroke-width:0.01;stroke-linecap:round;stroke-linejoin:round;stroke-miterlimit:4;stroke-opacity:1;stroke-dasharray:none;stroke-dashoffset:10"
       id="rect3770"
       width="141.49843"
       height="7.2960129"
       x="402.40875"
       y="-5.1952472"
       ry="3.6480064" />
    <path
       sodipodi:type="arc"
       style="fill:#b6b6b6;fill-opacity:1;stroke:#00ff00;stroke-width:0.00571117;stroke-linecap:round;stroke-linejoin:round;stroke-miterlimit:4;stroke-opacity:1;stroke-dasharray:none;stroke-dashoffset:10"
       id="path3772"
       sodipodi:cx="427.23138"
       sodipodi:cy="343.80331"
       sodipodi:rx="4.6088209"
       sodipodi:ry="4.6088209"
       d="m 431.84021,343.80331 c 0,2.54539 -2.06344,4.60883 -4.60883,4.60883 -2.54538,0 -4.60882,-2.06344 -4.60882,-4.60883 0,-2.54538 2.06344,-4.60882 4.60882,-4.60882 2.54539,0 4.60883,2.06344 4.60883,4.60882 z"
       transform="matrix(1.7509538,0,0,1.7509538,-186.71582,-601.98335)" />
    <path
       transform="matrix(1.1397152,0,0,1.1397152,74.424467,-391.52483)"
       d="m 431.84021,343.80331 c 0,2.54539 -2.06344,4.60883 -4.60883,4.60883 -2.54538,0 -4.60882,-2.06344 -4.60882,-4.60883 0,-2.54538 2.06344,-4.60882 4.60882,-4.60882 2.54539,0 4.60883,2.06344 4.60883,4.60882 z"
       sodipodi:ry="4.6088209"
       sodipodi:rx="4.6088209"
       sodipodi:cy="343.80331"
       sodipodi:cx="427.23138"
       id="path3774"
       style="fill:none;stroke:#999999;stroke-width:0.87741214;stroke-linecap:round;stroke-linejoin:round;stroke-miterlimit:4;stroke-opacity:1;stroke-dasharray:none;stroke-dashoffset:10"
       sodipodi:type="arc" />
    <path
       style="fill:#000000;fill-opacity:1;stroke:none"
       d="m 300.08739,41.732052 0,549.164488 346.06158,0 0,-549.164488 z m 15.36379,17.031269 314.48742,0 0,519.954609 -314.48742,0 z"
       id="rect3063"
       inkscape:connector-curvature="0"
       sodipodi:nodetypes="cccccccccc" />
  </g>
</svg>
