<?xml version="1.0" encoding="UTF-8" standalone="no"?>
<!-- Generator: Adobe Illustrator 16.0.0, SVG Export Plug-In . SVG Version: 6.00 Build 0)  -->

<svg
   xmlns:dc="http://purl.org/dc/elements/1.1/"
   xmlns:cc="http://creativecommons.org/ns#"
   xmlns:rdf="http://www.w3.org/1999/02/22-rdf-syntax-ns#"
   xmlns:svg="http://www.w3.org/2000/svg"
   xmlns="http://www.w3.org/2000/svg"
   xmlns:sodipodi="http://sodipodi.sourceforge.net/DTD/sodipodi-0.dtd"
   xmlns:inkscape="http://www.inkscape.org/namespaces/inkscape"
   version="1.1"
   id="Livello_1"
   x="0px"
   y="0px"
   width="720px"
   height="528px"
   viewBox="-10 -1 720 528"
   enable-background="new -10 -1 720 528"
   xml:space="preserve"
   inkscape:version="0.48.4 r9939"
   sodipodi:docname="desktop.svg"><metadata
     id="metadata19"><rdf:RDF><cc:Work
         rdf:about=""><dc:format>image/svg+xml</dc:format><dc:type
           rdf:resource="http://purl.org/dc/dcmitype/StillImage" /></cc:Work></rdf:RDF></metadata><defs
     id="defs17" /><sodipodi:namedview
     pagecolor="#ffffff"
     bordercolor="#666666"
     borderopacity="1"
     objecttolerance="10"
     gridtolerance="10"
     guidetolerance="10"
     inkscape:pageopacity="0"
     inkscape:pageshadow="2"
     inkscape:window-width="1603"
     inkscape:window-height="1117"
     id="namedview15"
     showgrid="false"
     inkscape:zoom="9.1766746"
     inkscape:cx="90.766949"
     inkscape:cy="490.85503"
     inkscape:window-x="174"
     inkscape:window-y="133"
     inkscape:window-maximized="0"
     inkscape:current-layer="Livello_1" /><g
     id="g7"><g
       id="g9"><path
         fill="#151515"
         d="M689.817-1H10.182C0.14-1-8,7.149-8,17.201V405.8c0,10.052,8.14,18.2,18.182,18.2h679.636    C699.86,424,708,415.852,708,405.8V17.201C708,7.149,699.86-1,689.817-1z M678,389H22V29h656V389z"
         id="path11" /></g></g><path
     fill="#E5E5E4"
     d="M251.719,523.27l1.817,2.73h193.875l2.511-2.708L251.719,523.27z"
     id="path13" /><rect
     style="fill:#000000;stroke:none;stroke-width:1;stroke-linecap:round;stroke-linejoin:round;stroke-miterlimit:4;stroke-opacity:1;stroke-dasharray:none;stroke-dashoffset:10"
     id="rect2996"
     width="200.94424"
     height="16.127846"
     x="261.09677"
     y="511.00037"
     transform="translate(-10,-1)"
     ry="8.0639229" /><rect
     ry="0"
     y="518.70587"
     x="261.09677"
     height="8.422328"
     width="200.94424"
     id="rect2998"
     style="fill:#000000;stroke:none"
     transform="translate(-10,-1)" /><path
     style="fill:#000000;fill-opacity:1;stroke:none"
     d="m 285.48669,422.35959 132.16439,0 -18,91.07876 -96.16439,0 z"
     id="rect3000"
     inkscape:connector-curvature="0"
     sodipodi:nodetypes="ccccc" /></svg>